{"glyphs":{"0":{"ha":937,"x_min":64,"x_max":873,"o":"m 467.94 -13.56 l 467.94 -13.56 q 250.24 47.81 340.44 -13.56 q 111.9 224.81 160.05 109.19 q 63.75 504.56 63.75 340.44 l 63.75 504.56 q 111.9 784.3 63.75 668 q 250.24 962.32 160.05 900.61 q 467.94 1024.03 340.44 1024.03 l 467.94 1024.03 q 685.97 961.98 595.43 1024.03 q 824.65 783.96 776.5 899.93 q 872.8 504.56 872.8 668 l 872.8 504.56 q 824.99 224.81 872.8 340.44 q 686.65 47.81 777.18 109.19 q 467.94 -13.56 596.11 -13.56 m 467.94 158.01 l 467.94 158.01 q 573.39 198.7 530.33 158.01 q 639.17 316.7 616.46 239.39 q 661.89 504.56 661.89 394.02 l 661.89 504.56 q 639.17 693.77 661.89 615.78 q 573.39 812.45 616.46 771.76 q 467.94 853.14 530.33 853.14 l 467.94 853.14 q 362.82 812.11 406.22 853.14 q 297.04 693.43 319.42 771.08 q 274.66 504.56 274.66 615.78 l 274.66 504.56 q 297.04 316.7 274.66 394.02 q 362.82 198.7 319.42 239.39 q 467.94 158.01 406.22 158.01 "},"1":{"ha":599,"x_min":63,"x_max":508,"o":"m 286.19 1010.47 l 507.95 1010.47 l 507.95 0 l 301.11 0 l 301.11 828.04 l 294.33 828.04 l 63.07 663.93 l 63.07 853.81 l 286.19 1010.47 "},"2":{"ha":875,"x_min":75,"x_max":799,"o":"m 798.88 0 l 84.09 0 l 84.09 149.2 l 442.17 484.89 q 519.82 565.93 488.28 529.65 q 567.97 637.14 551.35 602.21 q 584.58 712.75 584.58 672.06 l 584.58 712.75 q 564.24 790.74 584.58 758.19 q 508.63 840.93 543.89 823.3 q 427.92 858.56 473.36 858.56 l 427.92 858.56 q 345.87 839.57 381.13 858.56 q 291.61 785.32 310.6 820.58 q 272.62 700.55 272.62 750.05 l 272.62 700.55 l 74.6 700.55 q 119.7 871.79 74.6 798.88 q 244.82 984.36 164.79 944.69 q 429.28 1024.03 324.84 1024.03 l 429.28 1024.03 q 616.46 985.72 536.43 1024.03 q 740.9 880.26 696.48 947.4 q 785.32 725.64 785.32 813.12 l 785.32 725.64 q 763.28 614.42 785.32 669.35 q 684.61 491.33 741.24 559.49 q 524.22 328.23 627.98 423.18 l 524.22 328.23 l 371.64 177.68 l 371.64 170.22 l 798.88 170.22 l 798.88 0 "},"3":{"ha":897,"x_min":67,"x_max":833,"o":"m 446.91 -13.56 l 446.91 -13.56 q 251.94 24.07 337.05 -13.56 q 117.66 128.85 166.83 61.71 q 67.14 283.47 68.5 195.99 l 67.14 283.47 l 275.34 283.47 q 300.09 217.35 277.37 245.5 q 361.46 173.61 322.81 189.21 q 447.59 158.01 400.12 158.01 l 447.59 158.01 q 535.75 175.31 497.78 158.01 q 595.43 223.8 573.73 192.6 q 617.13 296.36 617.13 254.99 l 617.13 296.36 q 594.41 370.28 617.13 338.41 q 529.65 420.13 571.7 402.15 q 428.6 438.1 487.6 438.1 l 428.6 438.1 l 335.02 438.1 l 335.02 592.04 l 428.6 592.04 q 515.41 609.33 478.11 592.04 q 574.07 656.81 552.71 626.63 q 595.43 727.67 595.43 686.98 l 595.43 727.67 q 577.12 796.17 595.43 767.01 q 525.92 841.95 558.81 825.33 q 448.95 858.56 493.03 858.56 l 448.95 858.56 q 368.25 842.62 404.87 858.56 q 309.24 798.2 331.62 826.69 q 286.19 730.39 286.87 769.72 l 286.19 730.39 l 86.81 730.39 q 135.97 882.98 88.16 816.51 q 265.84 986.74 183.78 949.44 q 450.3 1024.03 347.9 1024.03 l 450.3 1024.03 q 632.05 986.06 554.06 1024.03 q 753.11 883.65 710.04 948.08 q 796.17 740.56 796.17 819.23 l 796.17 740.56 q 743.61 598.82 796.17 655.79 q 606.96 525.58 691.05 541.86 l 606.96 525.58 l 606.96 518.12 q 730.73 476.75 680.2 508.63 q 807.02 395.37 781.25 444.88 q 832.79 282.8 832.79 345.87 l 832.79 282.8 q 783.28 130.21 832.79 197.35 q 646.63 24.75 733.78 63.07 q 446.91 -13.56 559.49 -13.56 "},"4":{"ha":939,"x_min":68,"x_max":877,"o":"m 552.03 179.71 l 68.5 179.71 l 68.5 343.15 l 490.99 1010.47 l 750.73 1010.47 l 750.73 346.54 l 876.87 346.54 l 876.87 179.71 l 750.73 179.71 l 750.73 0 l 552.03 0 l 552.03 179.71 m 277.37 346.54 l 556.1 346.54 l 556.1 782.61 l 547.96 782.61 l 277.37 354.68 l 277.37 346.54 "},"5":{"ha":864,"x_min":63,"x_max":800,"o":"m 425.89 -13.56 l 425.89 -13.56 q 241.09 24.75 322.13 -13.56 q 112.92 130.21 160.05 63.07 q 63.07 283.47 65.78 197.35 l 63.07 283.47 l 265.16 283.47 q 289.24 213.96 267.2 244.14 q 347.22 167.17 311.28 183.78 q 425.89 150.55 383.17 150.55 l 425.89 150.55 q 515.75 173.27 476.75 150.55 q 577.12 236.68 554.74 195.99 q 599.5 330.95 599.5 277.37 l 599.5 330.95 q 576.78 426.23 599.5 384.52 q 514.39 490.99 554.06 467.94 q 422.5 514.05 474.72 514.05 l 422.5 514.05 q 335.35 496.08 377.06 514.05 q 270.59 447.59 293.65 478.11 l 270.59 447.59 l 84.77 480.14 l 132.92 1010.47 l 744.63 1010.47 l 744.63 839.57 l 304.5 839.57 l 278.73 583.9 l 284.15 583.9 q 364.52 644.26 311.28 620.52 q 482.86 668 417.75 668 l 482.86 668 q 609.33 643.58 551.35 668 q 710.04 574.75 667.32 619.17 q 776.5 469.29 752.77 530.33 q 800.24 335.69 800.24 408.26 l 800.24 335.69 q 753.11 155.3 800.24 233.97 q 621.54 31.53 705.97 76.63 q 425.89 -13.56 537.11 -13.56 "},"6":{"ha":902,"x_min":64,"x_max":839,"o":"m 463.87 -13.56 l 463.87 -13.56 q 315.35 12.21 387.23 -13.56 q 186.84 95.28 243.46 37.98 q 96.98 247.53 130.21 152.59 q 63.75 481.5 63.75 342.48 l 63.75 481.5 q 92.23 709.36 63.75 609 q 174.29 880.26 120.71 809.73 q 303.14 987.41 227.86 950.79 q 471.33 1024.03 378.42 1024.03 l 471.33 1024.03 q 647.65 985.04 571.02 1024.03 q 771.42 879.92 724.28 946.04 q 828.04 730.39 818.55 813.8 l 828.04 730.39 l 624.59 730.39 q 571.36 814.82 611.71 783.96 q 471.33 845.68 531.01 845.68 l 471.33 845.68 q 359.09 806.34 404.87 845.68 q 290.26 694.78 313.31 767.01 q 267.2 522.87 267.2 622.56 l 267.2 522.87 l 273.98 522.87 q 335.35 598.82 297.04 566.95 q 423.18 647.31 373.67 630.7 q 527.62 663.93 472.68 663.93 l 527.62 663.93 q 687.32 622.22 617.13 663.93 q 798.2 506.59 757.51 580.51 q 838.89 337.73 838.89 432.67 l 838.89 337.73 q 791.42 155.98 838.89 235.32 q 659.86 31.53 743.95 76.63 q 463.87 -13.56 575.76 -13.56 m 462.51 150.55 l 462.51 150.55 q 552.03 174.63 512.7 150.55 q 614.42 239.73 591.36 198.7 q 637.48 332.3 637.48 280.76 l 637.48 332.3 q 615.1 423.86 637.48 383.17 q 553.39 488.62 592.72 464.55 q 463.87 512.7 514.05 512.7 l 463.87 512.7 q 394.69 498.45 426.57 512.7 q 338.75 459.12 362.82 484.21 q 301.45 401.48 314.67 434.03 q 288.22 331.62 288.22 368.92 l 288.22 331.62 q 310.6 241.09 288.22 282.12 q 372.65 175.31 332.98 200.06 q 462.51 150.55 412.33 150.55 "},"7":{"ha":808,"x_min":51,"x_max":757,"o":"m 335.02 0 l 120.04 0 l 540.5 832.79 l 540.5 839.57 l 50.86 839.57 l 50.86 1010.47 l 756.84 1010.47 l 756.84 836.86 l 335.02 0 "},"8":{"ha":904,"x_min":64,"x_max":841,"o":"m 451.66 -13.56 l 451.66 -13.56 q 250.92 23.74 338.41 -13.56 q 113.59 125.46 163.44 61.04 q 63.75 271.27 63.75 189.89 l 63.75 271.27 q 92.57 387.57 63.75 334.34 q 170.56 476.41 121.39 440.81 q 281.44 522.19 219.73 512.02 l 281.44 522.19 l 281.44 528.29 q 150.55 607.64 200.74 545.25 q 100.37 752.77 100.37 670.03 l 100.37 752.77 q 145.81 892.13 100.37 830.76 q 270.59 988.77 191.24 953.5 q 451.66 1024.03 349.93 1024.03 l 451.66 1024.03 q 632.39 988.77 552.71 1024.03 q 757.85 892.13 712.08 953.5 q 803.63 752.77 803.63 830.76 l 803.63 752.77 q 752.77 607.64 803.63 670.03 q 623.24 528.29 701.9 545.25 l 623.24 528.29 l 623.24 522.19 q 732.76 476.41 683.59 512.02 q 811.43 387.57 781.93 440.81 q 840.93 271.27 840.93 334.34 l 840.93 271.27 q 790.74 125.46 840.93 189.89 q 652.74 23.74 740.56 61.04 q 451.66 -13.56 564.91 -13.56 m 451.66 139.7 l 451.66 139.7 q 542.53 158.35 503.88 139.7 q 602.89 210.57 581.19 177 q 624.59 287.54 624.59 244.14 l 624.59 287.54 q 602.21 366.55 624.59 332.3 q 540.84 420.8 579.83 400.8 q 451.66 440.81 501.84 440.81 l 451.66 440.81 q 362.48 421.14 401.48 440.81 q 301.11 367.23 323.49 401.48 q 278.73 287.54 278.73 332.98 l 278.73 287.54 q 300.09 210.91 278.73 244.14 q 360.79 158.69 321.45 177.68 q 451.66 139.7 400.12 139.7 m 451.66 592.72 l 451.66 592.72 q 528.63 610.35 495.06 592.72 q 581.53 659.18 562.2 627.98 q 600.86 730.39 600.86 690.38 l 600.86 730.39 q 581.87 801.6 600.86 771.08 q 529.31 849.07 562.88 832.11 q 451.66 866.02 495.74 866.02 l 451.66 866.02 q 374.01 849.07 407.58 866.02 q 321.45 801.6 340.44 832.11 q 302.46 730.39 302.46 771.08 l 302.46 730.39 q 321.45 659.18 302.46 690.38 q 374.35 610.35 340.44 627.98 q 451.66 592.72 408.26 592.72 "},"9":{"ha":902,"x_min":64,"x_max":839,"o":"m 431.32 -14.92 l 431.32 -14.92 q 254.65 24.41 331.62 -14.92 q 130.89 130.89 177.68 63.75 q 73.92 281.44 84.09 198.03 l 73.92 281.44 l 278.73 281.44 q 330.95 195.31 290.93 227.19 q 431.32 163.44 370.96 163.44 l 431.32 163.44 q 543.55 203.11 497.78 163.44 q 612.73 315.69 589.33 242.78 q 636.12 488.28 636.12 388.59 l 636.12 488.28 l 629.34 488.28 q 567.97 413 606.28 444.88 q 480.48 363.84 529.65 381.13 q 375.71 346.54 431.32 346.54 l 375.71 346.54 q 215.32 388.59 286.19 346.54 q 104.1 504.56 144.45 430.64 q 63.75 673.42 63.75 578.48 l 63.75 673.42 q 111.22 855.51 63.75 775.82 q 243.46 980.97 158.69 935.19 q 440.13 1025.39 328.23 1026.75 l 440.13 1025.39 q 587.97 999.28 516.76 1025.39 q 715.81 915.87 659.18 973.17 q 805.66 763.62 772.43 858.56 q 838.89 529.65 838.89 668.67 l 838.89 529.65 q 810.07 300.77 838.89 401.48 q 728.01 129.53 781.25 200.06 q 599.5 22.04 674.78 59 q 431.32 -14.92 524.22 -14.92 m 438.77 498.45 l 438.77 498.45 q 508.29 513.03 476.07 498.45 q 564.24 552.37 540.5 527.62 q 601.54 609.67 587.97 577.12 q 615.1 680.2 615.1 642.23 l 615.1 680.2 q 592.38 769.72 615.1 729.03 q 530.33 835.16 569.66 810.41 q 440.13 859.92 490.99 859.92 l 440.13 859.92 q 350.95 835.84 390.63 859.92 q 288.22 770.74 311.28 811.77 q 265.16 678.85 265.16 729.71 l 265.16 678.85 q 287.88 587.29 265.16 627.98 q 349.6 522.53 310.6 546.6 q 438.77 498.45 388.59 498.45 "},"A":{"ha":1037,"x_min":33,"x_max":1004,"o":"m 261.77 0 l 33.23 0 l 378.42 1010.47 l 649.69 1010.47 l 1003.69 0 l 773.79 0 l 695.8 234.65 l 337.05 234.65 l 261.77 0 m 388.59 396.73 l 642.23 396.73 l 611.71 487.6 q 552.71 694.44 582.55 581.87 l 552.71 694.44 q 512.02 847.71 533.04 767.01 l 512.02 847.71 q 474.04 693.09 491.67 765.65 l 474.04 693.09 q 417.75 487.6 445.56 579.83 l 417.75 487.6 l 388.59 396.73 "},"B":{"ha":919,"x_min":92,"x_max":865,"o":"m 518.12 0 l 91.55 0 l 91.55 1010.47 l 492.35 1010.47 q 677.83 976.9 603.57 1010.47 q 789.05 885.01 752.09 943.33 q 826.01 750.73 826.01 826.69 l 826.01 750.73 q 802.27 646.63 826.01 691.05 q 737.51 574.07 778.54 602.21 q 644.26 533.72 696.48 545.93 l 644.26 533.72 l 644.26 523.55 q 751.75 491.33 701.23 521.51 q 833.81 407.24 802.27 461.15 q 865.34 278.73 865.34 353.33 l 865.34 278.73 q 826.01 135.63 865.34 198.7 q 709.7 36.28 786.68 72.56 q 518.12 0 632.73 0 l 518.12 0 m 298.39 444.2 l 298.39 170.22 l 477.43 170.22 q 610.35 205.49 568.31 170.22 q 652.4 298.39 652.4 240.75 l 652.4 298.39 q 631.71 374.01 652.4 341.12 q 573.05 425.55 611.03 406.9 q 482.86 444.2 535.07 444.2 l 482.86 444.2 l 298.39 444.2 m 298.39 841.61 l 298.39 585.94 l 461.83 585.94 q 541.18 601.87 505.91 585.94 q 596.45 647.31 576.44 617.81 q 616.46 717.5 616.46 676.81 l 616.46 717.5 q 577.46 807.02 616.46 772.43 q 465.9 841.61 538.47 841.61 l 465.9 841.61 l 298.39 841.61 "},"C":{"ha":1027,"x_min":64,"x_max":968,"o":"m 533.04 -13.56 l 533.04 -13.56 q 292.63 47.47 398.76 -13.56 q 125.12 224.47 186.5 108.51 q 63.75 504.56 63.75 340.44 l 63.75 504.56 q 125.46 785.66 63.75 669.35 q 293.65 963 187.17 901.96 q 533.04 1024.03 400.12 1024.03 l 533.04 1024.03 q 693.43 999.96 619.17 1024.03 q 825.33 929.77 767.69 975.88 q 919.6 816.85 882.98 883.65 q 967.75 664.61 956.22 750.05 l 967.75 664.61 l 758.19 664.61 q 732.08 738.86 751.41 706.65 q 683.93 793.8 712.75 771.08 q 617.81 828.38 655.11 816.51 q 537.11 840.25 580.51 840.25 l 537.11 840.25 q 399.1 800.92 458.44 840.25 q 306.87 686.65 339.76 761.58 q 273.98 504.56 273.98 611.71 l 273.98 504.56 q 307.21 320.77 273.98 395.37 q 399.44 208.2 340.44 246.18 q 536.43 170.22 458.44 170.22 l 536.43 170.22 q 616.79 182.09 579.83 170.22 q 683.25 216.67 653.75 193.96 q 732.08 271.95 712.75 239.39 q 758.87 345.87 751.41 304.5 l 758.87 345.87 l 968.42 345.87 q 926.72 210.91 960.29 275.34 q 837.54 95.62 893.15 146.48 q 705.3 15.6 781.93 44.76 q 533.04 -13.56 628.66 -13.56 "},"D":{"ha":1003,"x_min":92,"x_max":939,"o":"m 446.91 0 l 446.91 0 l 91.55 0 l 91.55 1010.47 l 450.3 1010.47 q 711.74 949.77 602.21 1010.47 q 880.26 776.16 821.26 889.08 q 939.26 505.91 939.26 663.25 l 939.26 505.91 q 880.26 234.65 939.26 347.9 q 711.06 60.7 821.26 121.39 q 446.91 0 600.86 0 m 298.39 832.11 l 298.39 178.36 l 436.74 178.36 q 600.52 212.94 534.4 178.36 q 699.87 320.1 666.64 247.53 q 733.1 505.91 733.1 392.66 l 733.1 505.91 q 699.53 690.71 733.1 618.49 q 600.52 797.53 665.96 762.94 q 438.1 832.11 535.07 832.11 l 438.1 832.11 l 298.39 832.11 "},"E":{"ha":844,"x_min":92,"x_max":769,"o":"m 769.04 0 l 91.55 0 l 91.55 1010.47 l 767.69 1010.47 l 767.69 838.89 l 298.39 838.89 l 298.39 594.75 l 732.42 594.75 l 732.42 425.89 l 298.39 425.89 l 298.39 171.58 l 769.04 171.58 l 769.04 0 "},"F":{"ha":815,"x_min":92,"x_max":756,"o":"m 298.39 0 l 91.55 0 l 91.55 1010.47 l 756.16 1010.47 l 756.16 838.89 l 298.39 838.89 l 298.39 556.78 l 711.4 556.78 l 711.4 387.91 l 298.39 387.91 l 298.39 0 "},"G":{"ha":1042,"x_min":64,"x_max":975,"o":"m 539.14 -13.56 l 539.14 -13.56 q 290.6 49.17 397.41 -13.56 q 123.77 228.2 183.78 111.9 q 63.75 503.88 63.75 344.51 l 63.75 503.88 q 126.14 784.3 63.75 668 q 295 962.32 188.53 900.61 q 534.4 1024.03 401.48 1024.03 l 534.4 1024.03 q 693.43 999.28 619.85 1024.03 q 824.31 929.09 767.01 974.53 q 917.9 821.6 881.62 883.65 q 965.03 684.27 954.18 759.55 l 965.03 684.27 l 754.8 684.27 q 724.62 749.72 743.95 720.89 q 677.83 798.88 705.3 778.54 q 615.1 829.74 650.36 819.23 q 537.79 840.25 579.83 840.25 l 537.79 840.25 q 400.12 801.26 459.8 840.25 q 307.21 687.66 340.44 762.26 q 273.98 505.91 273.98 613.06 q 306.87 323.83 273.98 398.76 q 399.44 209.55 339.76 248.89 q 540.5 170.22 459.12 170.22 l 540.5 170.22 q 665.96 196.67 613.74 170.22 q 746.66 272.62 718.18 223.12 l 746.66 272.62 q 774.47 381.13 773.11 319.42 l 774.47 381.13 l 554.74 381.13 l 554.74 538.47 l 975.21 538.47 l 975.21 412.33 q 918.92 184.12 975.21 279.41 q 764.3 37.64 862.63 88.84 q 539.14 -13.56 665.96 -13.56 "},"H":{"ha":1038,"x_min":92,"x_max":946,"o":"m 298.39 0 l 91.55 0 l 91.55 1010.47 l 298.39 1010.47 l 298.39 602.21 l 738.53 602.21 l 738.53 1010.47 l 946.04 1010.47 l 946.04 0 l 738.53 0 l 738.53 430.64 l 298.39 430.64 l 298.39 0 "},"I":{"ha":390,"x_min":92,"x_max":298,"o":"m 91.55 1010.47 l 298.39 1010.47 l 298.39 0 l 91.55 0 l 91.55 1010.47 "},"J":{"ha":812,"x_min":46,"x_max":720,"o":"m 384.52 -13.56 l 384.52 -13.56 q 136.65 68.83 227.19 -13.56 q 46.12 303.82 46.12 151.23 l 46.12 303.82 l 46.12 362.82 l 252.96 362.82 l 252.96 300.43 q 288.56 190.57 252.96 227.86 q 384.52 153.27 324.16 153.27 l 384.52 153.27 q 480.14 190.57 444.88 153.27 q 515.41 301.11 515.41 227.86 l 515.41 301.11 l 515.41 1010.47 l 720.21 1010.47 l 720.21 304.5 q 630.7 68.83 720.21 151.23 q 384.52 -13.56 541.18 -13.56 "},"K":{"ha":999,"x_min":92,"x_max":964,"o":"m 298.39 0 l 91.55 0 l 91.55 1010.47 l 298.39 1010.47 l 298.39 734.46 l 295.68 505.24 q 305.18 520.83 300.43 513.37 l 305.18 520.83 q 370.96 616.12 335.02 568.31 q 453.02 720.21 406.9 663.93 l 453.02 720.21 l 700.55 1010.47 l 953.5 1010.47 l 575.76 573.05 l 964.36 0 l 719.54 0 l 431.99 436.74 l 298.39 288.9 l 298.39 0 "},"L":{"ha":785,"x_min":92,"x_max":734,"o":"m 734.46 0 l 91.55 0 l 91.55 1010.47 l 298.39 1010.47 l 298.39 171.58 l 734.46 171.58 l 734.46 0 "},"M":{"ha":1294,"x_min":92,"x_max":1203,"o":"m 297.04 0 l 91.55 0 l 91.55 1010.47 l 408.94 1010.47 l 573.05 546.6 q 596.45 462.51 583.22 514.05 q 623.24 351.29 609.67 410.97 l 623.24 351.29 q 648.33 238.04 636.8 292.97 l 648.33 238.04 q 672.74 349.93 659.86 292.29 l 672.74 349.93 q 699.53 461.83 686.31 409.61 q 722.93 546.6 712.75 514.05 l 722.93 546.6 l 884.33 1010.47 l 1203.07 1010.47 l 1203.07 0 l 994.87 0 l 994.87 476.07 q 995.89 558.81 994.87 509.3 q 998.6 665.62 996.91 608.32 q 1001.65 781.25 1000.3 722.93 l 1001.65 781.25 q 1003.01 832.11 1002.33 807.02 l 1003.01 832.11 q 988.09 774.47 995.55 803.63 l 988.09 774.47 q 956.56 657.82 972.49 714.11 q 926.38 554.4 940.62 601.54 q 901.96 476.07 912.14 507.27 l 901.96 476.07 l 734.46 0 l 560.17 0 l 389.95 476.07 q 365.53 553.72 379.77 507.27 q 335.35 656.47 351.29 600.18 q 303.14 773.11 319.42 712.75 l 303.14 773.11 q 289.58 824.65 296.36 798.88 l 289.58 824.65 q 290.26 783.96 289.58 804.99 l 290.26 783.96 q 293.31 668.33 291.61 726.32 q 296.02 560.51 295 610.35 q 297.04 476.07 297.04 510.66 l 297.04 476.07 l 297.04 0 "},"N":{"ha":1059,"x_min":92,"x_max":967,"o":"m 303.14 0 l 91.55 0 l 91.55 1010.47 l 322.13 1010.47 l 641.55 499.13 q 691.05 413.68 665.96 459.8 q 742.59 311.28 716.15 367.57 l 742.59 311.28 q 767.69 252.28 755.48 283.47 l 767.69 252.28 q 764.97 304.5 766.33 278.05 l 764.97 304.5 q 758.19 426.57 760.9 368.25 q 755.48 525.58 755.48 484.89 l 755.48 525.58 l 755.48 1010.47 l 967.07 1010.47 l 967.07 0 l 735.81 0 l 445.56 463.87 q 386.56 565.25 413.68 516.09 q 330.27 674.1 359.43 614.42 l 330.27 674.1 q 289.58 755.48 311.96 710.04 l 289.58 755.48 q 294.33 675.46 292.29 714.11 l 294.33 675.46 q 300.77 553.72 298.39 608.32 q 303.14 464.55 303.14 499.13 l 303.14 464.55 l 303.14 0 "},"O":{"ha":1070,"x_min":64,"x_max":1006,"o":"m 535.07 -13.56 l 535.07 -13.56 q 294.66 47.47 401.48 -13.56 q 125.8 224.47 187.85 108.51 q 63.75 504.56 63.75 340.44 l 63.75 504.56 q 125.8 785.66 63.75 669.35 q 294.66 963 187.85 901.96 q 535.07 1024.03 401.48 1024.03 l 535.07 1024.03 q 775.82 963 669.35 1024.03 q 944.35 785.66 882.3 901.96 q 1006.4 504.56 1006.4 669.35 l 1006.4 504.56 q 944.35 224.47 1006.4 340.44 q 775.82 47.47 882.3 108.51 q 535.07 -13.56 669.35 -13.56 m 535.07 170.22 l 535.07 170.22 q 672.4 208.54 613.74 170.22 q 763.62 321.79 731.07 246.85 q 796.17 504.56 796.17 396.73 l 796.17 504.56 q 763.62 688.68 796.17 613.74 q 672.4 801.93 731.07 763.62 q 535.07 840.25 613.74 840.25 l 535.07 840.25 q 398.08 801.6 457.09 840.25 q 306.53 688 339.08 762.94 q 273.98 504.56 273.98 613.06 l 273.98 504.56 q 306.53 322.13 273.98 396.73 q 398.08 208.88 339.08 247.53 q 535.07 170.22 457.09 170.22 "},"P":{"ha":900,"x_min":92,"x_max":847,"o":"m 298.39 0 l 91.55 0 l 91.55 1010.47 l 485.57 1010.47 q 681.56 966.73 600.86 1010.47 q 804.65 846.02 762.26 922.99 q 847.03 669.35 847.03 769.04 l 847.03 669.35 q 803.97 492.69 847.03 568.98 q 679.19 373.33 760.9 416.4 q 480.82 330.27 597.47 330.27 l 480.82 330.27 l 298.39 330.27 l 298.39 0 m 298.39 839.57 l 298.39 497.1 l 447.59 497.1 q 552.37 519.14 511.34 497.1 q 613.4 579.83 593.4 541.18 q 633.41 669.35 633.41 618.49 q 613.4 758.53 633.41 720.21 q 552.03 818.21 593.4 796.85 q 446.91 839.57 510.66 839.57 l 446.91 839.57 l 298.39 839.57 "},"Q":{"ha":1079,"x_min":64,"x_max":1006,"o":"m 535.07 -13.56 l 535.07 -13.56 q 294.66 47.47 401.48 -13.56 q 125.8 224.47 187.85 108.51 q 63.75 504.56 63.75 340.44 l 63.75 504.56 q 125.8 785.66 63.75 669.35 q 294.66 963 187.85 901.96 q 535.07 1024.03 401.48 1024.03 l 535.07 1024.03 q 775.82 963 669.35 1024.03 q 944.35 785.66 882.3 901.96 q 1006.4 504.56 1006.4 669.35 l 1006.4 504.56 q 944.69 224.47 1006.4 340.44 l 944.69 224.47 q 848.39 100.37 905.35 151.23 l 848.39 100.37 l 994.19 -84.09 l 800.92 -84.09 l 717.5 19.67 q 535.07 -13.56 634.09 -13.56 m 600.18 177.68 l 471.33 347.22 l 648.33 347.22 l 722.25 252.96 q 763.62 322.13 746.66 282.12 l 763.62 322.13 q 796.17 504.56 796.17 396.73 l 796.17 504.56 q 763.62 688.68 796.17 613.74 q 672.4 801.93 731.07 763.62 q 535.07 840.25 613.74 840.25 l 535.07 840.25 q 398.08 801.6 457.09 840.25 q 306.53 688 339.08 762.94 q 273.98 504.56 273.98 613.06 l 273.98 504.56 q 306.53 322.13 273.98 396.73 q 398.08 208.88 339.08 247.53 q 535.07 170.22 457.09 170.22 l 535.07 170.22 q 600.18 177.68 569.66 170.22 l 600.18 177.68 "},"R":{"ha":912,"x_min":92,"x_max":883,"o":"m 298.39 0 l 91.55 0 l 91.55 1010.47 l 485.57 1010.47 q 681.56 969.78 600.86 1010.47 q 804.65 855.17 762.26 929.09 q 847.03 681.56 847.03 781.25 q 803.97 509.64 847.03 581.87 q 679.52 399.44 760.9 437.42 l 679.52 399.44 q 668 394.02 673.42 396.73 l 668 394.02 l 882.98 0 l 653.75 0 l 460.48 360.79 l 298.39 360.79 l 298.39 0 m 298.39 839.57 l 298.39 528.29 l 447.59 528.29 q 552.03 545.59 511.34 528.29 q 613.06 597.13 592.72 562.88 q 633.41 681.56 633.41 631.37 l 633.41 681.56 q 613.06 768.03 633.41 733.1 q 551.69 821.26 592.72 802.95 q 446.91 839.57 510.66 839.57 l 446.91 839.57 l 298.39 839.57 "},"S":{"ha":909,"x_min":58,"x_max":852,"o":"m 461.83 -14.92 l 461.83 -14.92 q 250.58 22.38 340.44 -14.92 q 110.54 132.92 160.73 59.68 q 57.64 313.31 60.36 206.16 l 57.64 313.31 l 259.06 313.31 q 289.58 228.2 263.13 262.45 q 360.11 177 316.03 193.96 q 459.8 160.05 404.19 160.05 l 459.8 160.05 q 556.44 175.98 515.41 160.05 q 620.52 221.08 597.47 191.92 q 643.58 288.9 643.58 250.24 l 643.58 288.9 q 622.9 346.88 643.58 323.49 q 563.56 387.23 602.21 370.28 q 469.29 417.07 524.9 404.19 l 469.29 417.07 l 358.07 444.88 q 157.34 542.87 229.9 476.07 q 84.77 719.54 84.77 609.67 l 84.77 719.54 q 133.94 879.58 84.77 811.09 q 268.89 986.06 183.11 948.08 q 464.55 1024.03 354.68 1024.03 l 464.55 1024.03 q 659.86 985.72 576.44 1024.03 q 790.07 879.25 743.27 947.4 q 838.22 722.25 836.86 811.09 l 838.22 722.25 l 638.16 722.25 q 586.28 816.51 632.73 783.28 q 462.51 849.75 539.82 849.75 l 462.51 849.75 q 372.99 834.83 410.29 849.75 q 316.37 793.46 335.69 819.91 q 297.04 733.1 297.04 767.01 l 297.04 733.1 q 319.42 671.05 297.04 695.8 q 379.1 631.04 341.8 646.29 q 458.44 605.6 416.4 615.78 l 458.44 605.6 l 549.99 583.22 q 668.67 544.57 613.74 568.98 q 764.97 484.55 723.61 520.16 q 829.06 400.12 806.34 448.95 q 851.78 287.54 851.78 351.29 l 851.78 287.54 q 805.66 127.83 851.78 195.99 q 672.06 22.38 759.55 59.68 q 461.83 -14.92 584.58 -14.92 "},"T":{"ha":927,"x_min":51,"x_max":876,"o":"m 360.11 838.89 l 50.86 838.89 l 50.86 1010.47 l 876.19 1010.47 l 876.19 838.89 l 567.63 838.89 l 567.63 0 l 360.11 0 l 360.11 838.89 "},"U":{"ha":1017,"x_min":92,"x_max":926,"o":"m 507.95 -14.24 l 507.95 -14.24 q 289.24 32.21 383.17 -14.24 q 143.43 161.4 195.31 78.67 q 91.55 354.68 91.55 244.14 l 91.55 354.68 l 91.55 1010.47 l 298.39 1010.47 l 298.39 371.64 q 324.5 266.86 298.39 312.64 q 397.75 194.97 350.61 221.08 q 507.95 168.86 444.88 168.86 l 507.95 168.86 q 618.83 194.97 571.7 168.86 q 692.07 266.86 665.96 221.08 q 718.18 371.64 718.18 312.64 l 718.18 371.64 l 718.18 1010.47 l 925.7 1010.47 l 925.7 354.68 q 873.48 161.4 925.7 244.14 q 727.34 32.21 821.26 78.67 q 507.95 -14.24 633.41 -14.24 "},"V":{"ha":1037,"x_min":33,"x_max":1004,"o":"m 657.82 0 l 387.23 0 l 33.23 1010.47 l 263.13 1010.47 l 424.53 522.87 q 483.53 320.1 453.69 430.64 l 483.53 320.1 q 523.55 166.15 503.2 247.53 l 523.55 166.15 q 562.88 320.77 544.57 248.21 l 562.88 320.77 q 619.17 522.87 591.36 430.64 l 619.17 522.87 l 775.15 1010.47 l 1003.69 1010.47 l 657.82 0 "},"W":{"ha":1441,"x_min":33,"x_max":1408,"o":"m 541.18 0 l 304.5 0 l 33.23 1010.47 l 259.06 1010.47 l 376.38 513.37 q 402.49 380.11 390.63 450.98 q 425.89 238.04 414.36 309.24 l 425.89 238.04 q 430.64 207.52 428.6 222.44 l 430.64 207.52 q 436.06 238.04 433.35 222.44 l 436.06 238.04 q 461.15 380.11 448.27 309.24 q 489.64 513.37 474.04 450.98 l 489.64 513.37 l 613.06 1010.47 l 828.04 1010.47 l 950.79 513.37 q 979.28 380.11 966.39 450.98 q 1005.05 238.04 992.16 309.24 l 1005.05 238.04 q 1009.79 209.55 1007.08 223.12 l 1009.79 209.55 q 1014.54 238.04 1011.83 223.12 l 1014.54 238.04 q 1037.94 380.11 1025.39 309.24 q 1064.05 513.37 1050.48 450.98 l 1064.05 513.37 l 1181.37 1010.47 l 1407.88 1010.47 l 1135.93 0 l 899.93 0 l 765.65 516.76 q 729.03 703.26 743.95 602.89 l 729.03 703.26 q 719.54 761.58 724.28 732.42 l 719.54 761.58 q 712.08 707.33 715.47 734.46 l 712.08 707.33 q 674.78 516.76 698.51 608.32 l 674.78 516.76 l 541.18 0 "},"X":{"ha":1025,"x_min":35,"x_max":991,"o":"m 273.98 0 l 34.59 0 l 397.41 516.76 l 67.14 1010.47 l 307.21 1010.47 l 417.75 840.93 q 468.95 754.46 448.95 792.78 q 505.91 680.88 488.96 716.15 l 505.91 680.88 q 515.41 660.54 509.98 670.71 l 515.41 660.54 q 524.9 680.2 520.16 670.71 l 524.9 680.2 q 562.2 754.12 541.86 715.47 q 613.74 840.93 582.55 792.78 l 613.74 840.93 l 726.32 1010.47 l 960.96 1010.47 l 634.09 522.87 l 990.8 0 l 745.31 0 l 604.93 211.59 q 559.83 284.15 577.12 254.31 q 528.97 341.12 542.53 313.99 l 528.97 341.12 q 512.7 370.96 521.51 354.68 l 512.7 370.96 q 497.1 341.8 504.56 355.36 l 497.1 341.8 q 465.22 284.49 482.86 314.67 q 419.11 211.59 447.59 254.31 l 419.11 211.59 l 273.98 0 "},"Y":{"ha":1015,"x_min":33,"x_max":982,"o":"m 613.74 0 l 407.58 0 l 407.58 379.77 l 33.23 1010.47 l 275.34 1010.47 l 446.23 695.8 q 493.03 601.54 472.68 648.33 l 493.03 601.54 q 512.02 554.74 502.52 579.83 l 512.02 554.74 q 530.33 602.21 521.51 580.51 l 530.33 602.21 q 575.09 695.8 549.99 649.01 l 575.09 695.8 l 740.56 1010.47 l 981.99 1010.47 l 613.74 379.77 l 613.74 0 "},"Z":{"ha":922,"x_min":76,"x_max":846,"o":"m 846.35 0 l 77.99 0 l 77.99 124.1 l 487.6 702.58 q 571.02 809.05 525.58 755.48 l 571.02 809.05 q 599.5 841.61 585.26 825.33 l 599.5 841.61 q 542.53 840.25 571.02 840.25 l 542.53 840.25 q 406.22 838.89 474.04 838.89 l 406.22 838.89 l 75.95 838.89 l 75.95 1010.47 l 844.32 1010.47 l 844.32 885.69 l 442.17 317.38 q 355.36 206.84 402.15 261.77 l 355.36 206.84 q 322.81 168.86 339.08 187.85 l 322.81 168.86 q 386.56 170.9 354.68 170.22 l 386.56 170.9 q 527.62 171.58 457.09 171.58 l 527.62 171.58 l 846.35 171.58 l 846.35 0 "},"a":{"ha":806,"x_min":46,"x_max":720,"o":"m 298.39 -14.92 l 298.39 -14.92 q 169.2 10.51 226.51 -14.92 q 79.01 86.47 111.9 35.94 q 46.12 212.27 46.12 136.99 l 46.12 212.27 q 69.51 318.06 46.12 275.34 q 133.26 386.56 92.91 360.79 q 224.81 425.89 173.61 412.33 q 332.3 444.88 276.01 439.45 l 332.3 444.88 q 438.44 457.42 398.08 451.66 q 497.44 475.74 478.79 463.19 q 516.09 512.7 516.09 488.28 l 516.09 512.7 l 516.09 516.09 q 502.52 571.02 516.09 548.64 q 462.17 605.27 488.96 593.4 q 397.41 617.13 435.38 617.13 l 397.41 617.13 q 328.91 605.27 358.07 617.13 q 281.44 573.73 299.75 593.4 q 254.31 529.65 263.13 554.06 l 254.31 529.65 l 67.82 560.17 q 132.92 672.74 87.48 626.63 q 245.84 743.27 178.36 718.86 q 398.08 767.69 313.31 767.69 l 398.08 767.69 q 516.76 753.11 459.12 767.69 q 620.19 708.01 574.41 738.53 q 692.75 628.32 665.96 677.49 q 719.54 510.66 719.54 579.16 l 719.54 510.66 l 719.54 0 l 526.94 0 l 526.94 105.12 l 520.16 105.12 q 471.33 43.06 501.84 69.85 q 397.75 0.68 440.81 16.28 q 298.39 -14.92 354.68 -14.92 m 356.04 128.17 l 356.04 128.17 q 440.47 147.16 404.19 128.17 q 497.1 198.7 476.75 166.15 q 517.44 271.27 517.44 231.26 l 517.44 271.27 l 517.44 353.33 q 490.32 341.12 508.63 346.54 q 449.63 331.62 472.01 335.69 q 405.54 324.16 427.25 327.56 q 366.89 318.74 383.84 320.77 l 366.89 318.74 q 301.11 301.11 329.59 313.31 q 257.03 268.89 272.62 288.9 q 241.43 217.69 241.43 248.89 l 241.43 217.69 q 256.35 168.52 241.43 188.53 q 297.04 138.35 271.27 148.52 q 356.04 128.17 322.81 128.17 "},"b":{"ha":876,"x_min":87,"x_max":820,"o":"m 511.34 -12.89 l 511.34 -12.89 q 406.9 8.14 449.63 -12.89 q 337.39 60.02 364.18 29.16 q 296.36 121.39 310.6 90.87 l 296.36 121.39 l 286.87 121.39 l 286.87 0 l 86.81 0 l 86.81 1010.47 l 290.26 1010.47 l 290.26 630.7 l 296.36 630.7 q 336.71 692.41 310.6 660.54 q 405.54 745.99 362.82 724.28 q 512.7 767.69 448.27 767.69 l 512.7 767.69 q 666.64 724.28 596.79 767.69 q 778.2 594.08 736.49 680.88 q 819.91 377.74 819.91 507.27 l 819.91 377.74 q 779.22 164.46 819.91 251.6 q 668.67 32.21 738.53 77.31 q 511.34 -12.89 598.82 -12.89 m 448.95 150.55 l 448.95 150.55 q 538.13 179.71 501.84 150.55 q 593.06 260.42 574.41 208.88 q 611.71 378.42 611.71 311.96 l 611.71 378.42 q 593.06 495.74 611.71 444.88 q 538.47 575.76 574.41 546.6 q 448.95 604.93 502.52 604.93 l 448.95 604.93 q 360.11 576.78 396.73 604.93 q 304.5 498.11 323.49 548.64 q 285.51 378.42 285.51 447.59 l 285.51 378.42 q 304.84 258.72 285.51 309.92 q 360.79 179.04 324.16 207.52 q 448.95 150.55 397.41 150.55 "},"c":{"ha":817,"x_min":55,"x_max":764,"o":"m 425.89 -14.92 l 425.89 -14.92 q 228.2 34.25 311.28 -14.92 q 100.03 171.24 145.13 83.41 q 54.93 375.71 54.93 259.06 l 54.93 375.71 q 100.03 581.53 54.93 493.71 q 228.2 718.52 145.13 669.35 q 425.89 767.69 311.28 767.69 l 425.89 767.69 q 549.99 750.05 493.03 767.69 q 651.04 699.87 606.96 732.42 q 723.61 620.52 695.12 667.32 q 762.94 515.41 752.09 573.73 l 762.94 515.41 l 573.73 480.14 q 554.74 533.38 567.63 509.98 q 523.55 573.39 541.86 556.78 q 481.16 598.82 505.24 590.01 q 427.92 607.64 457.09 607.64 l 427.92 607.64 q 336.71 578.48 373.67 607.64 q 281.1 497.1 299.75 549.32 q 262.45 376.38 262.45 444.88 l 262.45 376.38 q 281.1 257.03 262.45 309.24 q 336.71 174.97 299.75 204.81 q 427.92 145.13 373.67 145.13 l 427.92 145.13 q 481.5 154.28 457.09 145.13 q 524.9 180.73 505.91 163.44 q 556.78 222.44 543.89 198.03 q 575.09 277.37 569.66 246.85 l 575.09 277.37 l 764.3 242.78 q 724.96 135.29 753.45 182.43 q 652.4 54.25 696.48 88.16 q 551.01 2.71 608.32 20.35 q 425.89 -14.92 493.71 -14.92 "},"d":{"ha":876,"x_min":55,"x_max":789,"o":"m 363.5 -12.89 l 363.5 -12.89 q 206.5 32.21 276.69 -12.89 q 95.62 164.46 136.31 77.31 q 54.93 377.74 54.93 251.6 l 54.93 377.74 q 96.98 594.08 54.93 507.27 q 208.88 724.28 139.02 680.88 q 362.82 767.69 278.73 767.69 l 362.82 767.69 q 469.97 745.99 427.25 767.69 q 539.14 692.41 512.7 724.28 q 578.48 630.7 565.59 660.54 l 578.48 630.7 l 585.26 630.7 l 585.26 1010.47 l 788.71 1010.47 l 788.71 0 l 588.65 0 l 588.65 121.39 l 578.48 121.39 q 538.13 60.02 564.91 90.87 q 468.61 8.14 511.34 29.16 q 363.5 -12.89 425.89 -12.89 m 426.57 150.55 l 426.57 150.55 q 514.73 179.04 478.11 150.55 q 570.34 258.72 551.35 207.52 q 589.33 378.42 589.33 309.92 l 589.33 378.42 q 570.68 498.11 589.33 447.59 q 515.41 576.78 552.03 548.64 q 426.57 604.93 478.79 604.93 l 426.57 604.93 q 336.71 575.76 372.99 604.93 q 282.12 495.74 300.43 546.6 q 263.81 378.42 263.81 444.88 l 263.81 378.42 q 282.46 260.42 263.81 311.96 q 337.39 179.71 301.11 208.88 q 426.57 150.55 373.67 150.55 "},"e":{"ha":827,"x_min":55,"x_max":775,"o":"m 429.28 -14.92 l 429.28 -14.92 q 229.22 32.55 313.31 -14.92 q 100.03 167.51 145.13 80.02 q 54.93 375.03 54.93 254.99 l 54.93 375.03 q 99.69 580.51 54.93 492.35 q 226.51 718.18 144.45 668.67 q 419.11 767.69 308.57 767.69 l 419.11 767.69 q 558.13 743.95 493.71 767.69 q 671.39 672.4 622.56 720.21 q 747.68 552.71 720.21 624.59 q 775.15 383.17 775.15 480.82 l 775.15 383.17 l 775.15 326.2 l 256.35 326.2 q 278.73 227.86 258.38 268.55 l 278.73 227.86 q 340.1 160.73 300.43 183.11 q 432.67 138.35 379.77 138.35 l 432.67 138.35 q 497.78 148.52 468.61 138.35 q 547.62 178.7 526.94 158.69 q 579.16 227.86 568.31 198.7 l 579.16 227.86 l 763.62 193.28 q 699.87 83.75 745.31 130.89 q 586.28 10.85 654.43 36.62 q 429.28 -14.92 518.12 -14.92 m 257.7 453.69 l 257.7 453.69 l 579.16 453.69 q 562.88 522.87 575.09 491.67 l 562.88 522.87 q 508.97 590.35 544.57 566.27 q 421.14 614.42 473.36 614.42 l 421.14 614.42 q 331.29 590.01 368.25 614.42 q 275.34 524.22 294.33 565.59 l 275.34 524.22 q 257.7 453.69 261.09 492.35 "},"f":{"ha":553,"x_min":14,"x_max":539,"o":"m 349.93 758.19 l 508.63 758.19 l 508.63 602.89 l 349.93 602.89 l 349.93 0 l 147.16 0 l 147.16 602.89 l 13.56 602.89 l 13.56 758.19 l 147.16 758.19 l 147.16 816.51 q 179.38 950.79 147.16 897.22 q 267.2 1031.16 211.59 1004.37 q 393.34 1057.94 322.81 1057.94 l 393.34 1057.94 q 481.16 1050.14 441.49 1057.94 q 539.14 1036.92 520.83 1042.34 l 539.14 1036.92 l 502.52 883.65 q 472.34 890.44 489.64 887.04 q 434.71 893.83 455.05 893.83 l 434.71 893.83 q 369.26 871.79 388.59 893.83 q 349.93 809.73 349.93 849.75 l 349.93 809.73 l 349.93 758.19 "},"g":{"ha":878,"x_min":55,"x_max":791,"o":"m 423.86 -299.75 l 423.86 -299.75 q 258.38 -275.68 328.91 -299.75 q 143.77 -209.55 187.85 -251.6 q 82.74 -113.93 99.69 -167.51 l 82.74 -113.93 l 257.7 -65.1 q 287.2 -106.13 267.2 -86.13 q 340.44 -139.02 307.21 -126.14 q 422.5 -151.91 373.67 -151.91 l 422.5 -151.91 q 544.91 -116.31 500.49 -151.91 q 589.33 -5.43 589.33 -80.7 l 589.33 -5.43 l 589.33 134.28 l 573.73 134.28 q 534.4 75.28 560.17 103.76 q 466.92 28.82 508.63 46.79 q 363.5 10.85 425.21 10.85 l 363.5 10.85 q 208.2 50.86 278.05 10.85 q 96.64 172.93 138.35 90.87 q 54.93 380.45 54.93 254.99 l 54.93 380.45 q 97.32 594.75 54.93 508.63 q 209.89 724.28 139.7 680.88 q 364.18 767.69 280.08 767.69 l 364.18 767.69 q 471.33 746.32 427.92 767.69 q 541.52 692.75 514.73 724.96 q 581.87 630.7 568.31 660.54 l 581.87 630.7 l 590.68 630.7 l 590.68 758.19 l 790.74 758.19 l 790.74 6.1 q 743.61 -164.12 790.74 -96.3 q 613.74 -265.84 696.48 -231.93 q 423.86 -299.75 531.01 -299.75 m 427.25 165.47 l 427.25 165.47 q 515.75 191.24 479.47 165.47 q 571.02 265.5 552.03 217.01 q 590.01 381.81 590.01 313.99 l 590.01 381.81 q 571.02 499.13 590.01 448.95 q 515.75 577.12 552.03 549.32 q 427.25 604.93 479.47 604.93 l 427.25 604.93 q 337.39 576.1 373.67 604.93 q 282.46 497.1 301.11 547.28 q 263.81 381.81 263.81 446.91 l 263.81 381.81 q 282.46 266.86 263.81 315.35 q 337.73 191.92 301.11 218.37 q 427.25 165.47 374.35 165.47 "},"h":{"ha":865,"x_min":87,"x_max":779,"o":"m 290.26 438.77 l 290.26 438.77 l 290.26 0 l 86.81 0 l 86.81 1010.47 l 286.19 1010.47 l 286.19 612.39 q 360.79 716.15 314.67 676.81 l 360.79 716.15 q 517.44 767.69 421.14 767.69 l 517.44 767.69 q 654.77 733.44 596.11 767.69 q 745.99 635.1 713.43 699.19 q 778.54 482.18 778.54 571.02 l 778.54 482.18 l 778.54 0 l 574.41 0 l 574.41 446.91 q 538.13 557.45 574.41 517.44 q 437.42 597.47 501.84 597.47 l 437.42 597.47 q 361.12 578.82 394.69 597.47 q 308.91 524.9 327.56 560.17 q 290.26 438.77 290.26 489.64 "},"i":{"ha":376,"x_min":77,"x_max":300,"o":"m 290.26 0 l 86.81 0 l 86.81 758.19 l 290.26 758.19 l 290.26 0 m 188.53 857.2 l 188.53 857.2 q 109.86 887.72 142.42 857.2 q 77.31 961.64 77.31 918.24 l 77.31 961.64 q 109.86 1035.56 77.31 1005.05 q 188.53 1066.08 142.42 1066.08 l 188.53 1066.08 q 267.54 1035.9 234.65 1066.08 q 300.43 961.64 300.43 1005.72 l 300.43 961.64 q 267.54 887.72 300.43 918.24 q 188.53 857.2 234.65 857.2 "},"j":{"ha":376,"x_min":-34,"x_max":300,"o":"m 86.13 -35.94 l 86.13 758.19 l 290.26 758.19 l 290.26 -38.66 q 256.35 -179.38 290.26 -125.46 q 159.03 -258.38 222.44 -233.29 q 7.46 -283.47 95.62 -283.47 l 7.46 -283.47 l -33.91 -283.47 l -33.91 -123.43 l -6.78 -123.43 q 65.44 -101.39 44.76 -123.43 q 86.13 -35.94 86.13 -79.35 l 86.13 -35.94 m 188.53 857.2 l 188.53 857.2 q 109.86 887.72 142.42 857.2 q 77.31 961.64 77.31 918.24 l 77.31 961.64 q 109.86 1035.56 77.31 1005.05 q 188.53 1066.08 142.42 1066.08 l 188.53 1066.08 q 267.54 1035.9 234.65 1066.08 q 300.43 961.64 300.43 1005.72 l 300.43 961.64 q 267.54 887.72 300.43 918.24 q 188.53 857.2 234.65 857.2 "},"k":{"ha":806,"x_min":87,"x_max":800,"o":"m 290.26 0 l 86.81 0 l 86.81 1010.47 l 290.26 1010.47 l 290.26 466.58 l 301.78 466.58 l 549.99 758.19 l 785.32 758.19 l 501.84 428.6 l 799.56 0 l 560.17 0 l 348.58 308.57 l 290.26 243.46 l 290.26 0 "},"l":{"ha":376,"x_min":87,"x_max":290,"o":"m 86.81 1010.47 l 290.26 1010.47 l 290.26 0 l 86.81 0 l 86.81 1010.47 "},"m":{"ha":1267,"x_min":87,"x_max":1181,"o":"m 290.26 0 l 86.81 0 l 86.81 758.19 l 275.34 758.19 l 283.47 611.03 q 322.81 683.59 299.07 653.08 l 322.81 683.59 q 402.83 748.7 356.72 727.67 q 499.81 769.72 448.95 769.72 l 499.81 769.72 q 632.05 718.18 581.87 769.72 l 632.05 718.18 q 695.12 600.18 672.06 676.81 l 695.12 600.18 q 737.85 677.49 711.4 644.94 l 737.85 677.49 q 828.38 747 775.82 724.28 q 938.59 769.72 880.94 769.72 l 938.59 769.72 q 1063.03 739.2 1008.44 769.72 q 1149.16 651.38 1117.62 708.69 q 1180.69 511.34 1180.69 594.08 l 1180.69 511.34 l 1180.69 0 l 977.24 0 l 977.24 472.68 q 942.31 568.31 977.24 537.11 q 856.53 599.5 907.39 599.5 l 856.53 599.5 q 790.41 582.89 818.55 599.5 q 747 536.43 762.26 566.27 q 731.74 466.58 731.74 506.59 l 731.74 466.58 l 731.74 0 l 535.07 0 l 535.07 478.11 q 502.18 566.61 535.07 533.72 q 417.07 599.5 469.29 599.5 l 417.07 599.5 q 352.31 583.22 381.13 599.5 q 306.87 535.41 323.49 566.95 q 290.26 458.44 290.26 503.88 l 290.26 458.44 l 290.26 0 "},"n":{"ha":865,"x_min":87,"x_max":778,"o":"m 290.26 438.77 l 290.26 438.77 l 290.26 0 l 86.81 0 l 86.81 758.19 l 278.73 758.19 l 281.44 601.54 q 360.79 716.15 310.6 673.42 l 360.79 716.15 q 517.44 767.69 421.14 767.69 l 517.44 767.69 q 654.77 733.44 596.11 767.69 q 745.65 635.1 713.43 699.19 q 777.86 482.18 777.86 571.02 l 777.86 482.18 l 777.86 0 l 574.41 0 l 574.41 446.91 q 538.13 557.45 574.41 517.44 q 437.42 597.47 501.84 597.47 l 437.42 597.47 q 361.12 578.82 394.69 597.47 q 308.91 524.9 327.56 560.17 q 290.26 438.77 290.26 489.64 "},"o":{"ha":852,"x_min":55,"x_max":797,"o":"m 425.89 -14.92 l 425.89 -14.92 q 228.54 34.25 311.96 -14.92 q 100.03 171.24 145.13 83.41 q 54.93 375.71 54.93 259.06 l 54.93 375.71 q 100.03 581.53 54.93 493.71 q 228.54 718.52 145.13 669.35 q 425.89 767.69 311.96 767.69 l 425.89 767.69 q 623.58 718.52 540.5 767.69 q 751.75 581.53 706.65 669.35 q 796.85 375.71 796.85 493.71 l 796.85 375.71 q 751.75 171.24 796.85 259.06 q 623.58 34.25 706.65 83.41 q 425.89 -14.92 540.5 -14.92 m 425.89 145.13 l 425.89 145.13 q 516.76 175.31 480.14 145.13 q 571.7 258.04 553.39 205.49 q 590.01 376.38 590.01 310.6 l 590.01 376.38 q 571.7 495.74 590.01 443.52 q 516.76 577.8 553.39 547.96 q 425.89 607.64 480.14 607.64 l 425.89 607.64 q 335.35 577.8 371.64 607.64 q 280.76 495.74 299.07 547.96 q 262.45 376.38 262.45 443.52 l 262.45 376.38 q 280.76 258.04 262.45 310.6 q 335.35 175.31 299.07 205.49 q 425.89 145.13 371.64 145.13 "},"p":{"ha":876,"x_min":87,"x_max":820,"o":"m 290.26 -283.47 l 86.81 -283.47 l 86.81 758.19 l 286.87 758.19 l 286.87 630.7 l 296.36 630.7 q 336.71 692.41 310.6 660.54 q 405.54 745.99 362.82 724.28 q 512.7 767.69 448.27 767.69 l 512.7 767.69 q 666.64 724.28 596.79 767.69 q 778.2 594.08 736.49 680.88 q 819.91 377.74 819.91 507.27 l 819.91 377.74 q 779.22 164.46 819.91 251.6 q 668.67 32.21 738.53 77.31 q 511.34 -12.89 598.82 -12.89 l 511.34 -12.89 q 406.9 8.14 449.63 -12.89 q 337.39 60.02 364.18 29.16 q 296.36 121.39 310.6 90.87 l 296.36 121.39 l 290.26 121.39 l 290.26 -283.47 m 448.95 150.55 l 448.95 150.55 q 538.13 179.71 501.84 150.55 q 593.06 260.42 574.41 208.88 q 611.71 378.42 611.71 311.96 l 611.71 378.42 q 593.06 495.74 611.71 444.88 q 538.47 575.76 574.41 546.6 q 448.95 604.93 502.52 604.93 l 448.95 604.93 q 360.11 576.78 396.73 604.93 q 304.5 498.11 323.49 548.64 q 285.51 378.42 285.51 447.59 l 285.51 378.42 q 304.84 258.72 285.51 309.92 q 360.79 179.04 324.16 207.52 q 448.95 150.55 397.41 150.55 "},"q":{"ha":876,"x_min":55,"x_max":789,"o":"m 788.71 758.19 l 788.71 -283.47 l 585.26 -283.47 l 585.26 121.39 l 578.48 121.39 q 538.13 60.02 564.91 90.87 q 468.61 8.14 511.34 29.16 q 363.5 -12.89 425.89 -12.89 l 363.5 -12.89 q 206.5 32.21 276.69 -12.89 q 95.62 164.46 136.31 77.31 q 54.93 377.74 54.93 251.6 l 54.93 377.74 q 96.98 594.08 54.93 507.27 q 208.88 724.28 139.02 680.88 q 362.82 767.69 278.73 767.69 l 362.82 767.69 q 469.97 745.99 427.25 767.69 q 539.14 692.41 512.7 724.28 q 578.48 630.7 565.59 660.54 l 578.48 630.7 l 588.65 630.7 l 588.65 758.19 l 788.71 758.19 m 426.57 150.55 l 426.57 150.55 q 514.73 179.04 478.11 150.55 q 570.34 258.72 551.35 207.52 q 589.33 378.42 589.33 309.92 l 589.33 378.42 q 570.68 498.11 589.33 447.59 q 515.41 576.78 552.03 548.64 q 426.57 604.93 478.79 604.93 l 426.57 604.93 q 336.71 575.76 372.99 604.93 q 282.12 495.74 300.43 546.6 q 263.81 378.42 263.81 444.88 l 263.81 378.42 q 282.46 260.42 263.81 311.96 q 337.39 179.71 301.11 208.88 q 426.57 150.55 373.67 150.55 "},"r":{"ha":566,"x_min":87,"x_max":541,"o":"m 290.26 0 l 86.81 0 l 86.81 758.19 l 283.47 758.19 l 283.47 625.95 l 291.61 625.95 q 361.8 732.42 312.64 696.48 q 474.72 768.36 410.97 768.36 l 474.72 768.36 q 508.63 766.67 490.32 768.36 q 540.5 761.58 526.94 764.97 l 540.5 761.58 l 540.5 579.83 q 501.17 587.29 526.94 584.58 q 452.34 590.01 475.4 590.01 l 452.34 590.01 q 368.92 570 406.22 590.01 q 310.94 514.39 331.62 549.99 q 290.26 431.32 290.26 478.79 l 290.26 431.32 l 290.26 0 "},"s":{"ha":778,"x_min":53,"x_max":727,"o":"m 387.91 -14.92 l 387.91 -14.92 q 225.83 11.19 296.36 -14.92 q 110.54 87.14 155.3 37.3 q 52.9 207.52 65.78 136.99 l 52.9 207.52 l 242.11 240.07 q 294.33 160.73 257.03 187.17 q 394.02 134.28 331.62 134.28 l 394.02 134.28 q 485.91 156.32 452.34 134.28 q 519.48 212.27 519.48 178.36 l 519.48 212.27 q 495.4 261.09 519.48 242.11 q 421.82 290.26 471.33 280.08 l 421.82 290.26 l 290.93 317.38 q 126.82 393.68 181.07 339.76 q 72.56 532.36 72.56 447.59 l 72.56 532.36 q 112.58 658.16 72.56 605.6 q 223.8 739.2 152.59 710.72 q 391.3 767.69 295 767.69 l 391.3 767.69 q 546.6 742.93 480.82 767.69 q 653.08 672.74 612.39 718.18 q 707.33 565.59 693.77 627.31 l 707.33 565.59 l 526.94 533.72 q 482.52 597.13 515.41 572.37 q 394.02 621.88 449.63 621.88 l 394.02 621.88 q 309.92 600.86 343.83 621.88 q 276.01 544.57 276.01 579.83 l 276.01 544.57 q 298.06 496.42 276.01 516.09 q 373.67 465.9 320.1 476.75 l 373.67 465.9 l 509.98 438.77 q 673.42 365.87 619.85 416.4 q 727 233.97 727 315.35 l 727 233.97 q 683.59 103.42 727 159.37 q 563.9 16.28 640.19 47.47 q 387.91 -14.92 487.6 -14.92 "},"t":{"ha":509,"x_min":14,"x_max":484,"o":"m 321.45 758.19 l 463.19 758.19 l 463.19 602.89 l 321.45 602.89 l 321.45 221.76 q 337.39 168.52 321.45 185.82 q 390.63 151.23 353.33 151.23 l 390.63 151.23 q 423.18 154.28 402.15 151.23 q 455.05 160.05 444.2 157.34 l 455.05 160.05 l 484.21 7.46 q 416.73 -6.78 450.3 -2.71 q 352.65 -10.85 383.17 -10.85 l 352.65 -10.85 q 178.36 44.76 238.72 -10.85 q 118 204.13 118 100.37 l 118 204.13 l 118 602.89 l 13.56 602.89 l 13.56 758.19 l 118 758.19 l 118 938.59 l 321.45 938.59 l 321.45 758.19 "},"u":{"ha":865,"x_min":87,"x_max":779,"o":"m 347.9 -9.49 l 347.9 -9.49 q 210.23 24.75 269.23 -9.49 q 119.02 123.09 151.23 59 q 86.81 276.01 86.81 187.17 l 86.81 276.01 l 86.81 758.19 l 290.26 758.19 l 290.26 311.28 q 326.88 200.74 290.26 240.75 q 427.25 160.73 363.5 160.73 l 427.25 160.73 q 503.88 179.38 470.65 160.73 q 555.76 233.63 537.11 198.03 q 574.41 319.42 574.41 269.23 l 574.41 319.42 l 574.41 758.19 l 778.54 758.19 l 778.54 0 l 585.94 0 l 583.9 158.01 q 503.88 42.05 554.74 84.77 l 503.88 42.05 q 347.9 -9.49 442.17 -9.49 "},"v":{"ha":833,"x_min":21,"x_max":812,"o":"m 531.68 0 l 300.43 0 l 21.02 758.19 l 237.36 758.19 l 364.85 364.85 q 405.54 215.66 387.91 290.93 l 405.54 215.66 q 418.43 156.66 411.65 186.5 l 418.43 156.66 q 431.99 215.66 425.21 186.5 l 431.99 215.66 q 472.01 364.85 448.95 290.93 l 472.01 364.85 l 598.14 758.19 l 811.77 758.19 l 531.68 0 "},"w":{"ha":1181,"x_min":21,"x_max":1160,"o":"m 451.66 0 l 244.82 0 l 21.02 758.19 l 234.65 758.19 l 300.43 478.11 q 337.05 314.67 317.38 402.83 l 337.05 314.67 q 362.14 186.5 350.61 254.31 l 362.14 186.5 q 388.59 312.64 374.35 252.96 l 388.59 312.64 q 427.92 478.11 409.61 401.48 l 427.92 478.11 l 497.1 758.19 l 684.27 758.19 l 752.09 478.11 q 790.07 313.31 769.04 401.48 l 790.07 313.31 q 817.19 185.82 804.31 252.96 l 817.19 185.82 q 841.61 312.64 828.72 252.96 l 841.61 312.64 q 877.55 478.11 859.92 400.8 l 877.55 478.11 l 943.33 758.19 l 1159.67 758.19 l 934.52 0 l 727.67 0 l 643.58 292.29 q 619.17 389.61 631.37 336.37 q 595.43 498.45 606.96 442.84 l 595.43 498.45 q 590.01 524.22 592.72 511.34 l 590.01 524.22 q 584.58 498.45 587.29 511.34 l 584.58 498.45 q 560.17 389.27 572.37 442.84 q 535.75 292.29 547.96 335.69 l 535.75 292.29 l 451.66 0 "},"x":{"ha":806,"x_min":28,"x_max":777,"o":"m 244.14 0 l 28.48 0 l 272.62 389.27 l 43.4 758.19 l 263.13 758.19 l 331.62 638.83 q 390.63 522.87 364.18 579.83 l 390.63 522.87 q 404.87 490.32 397.41 506.59 l 404.87 490.32 q 419.79 522.19 412.33 505.91 l 419.79 522.19 q 479.47 638.83 445.56 579.83 l 479.47 638.83 l 550.67 758.19 l 766.33 758.19 l 532.36 386.56 l 777.18 0 l 558.81 0 l 474.72 142.42 q 415.04 258.38 441.49 200.74 l 415.04 258.38 q 400.12 289.58 407.58 273.98 l 400.12 289.58 q 386.56 258.38 393.34 273.98 l 386.56 258.38 q 328.23 142.42 360.79 200.74 l 328.23 142.42 l 244.14 0 "},"y":{"ha":836,"x_min":21,"x_max":814,"o":"m 81.38 -268.55 l 81.38 -268.55 l 128.17 -115.29 l 153.27 -121.39 q 225.83 -127.5 193.96 -132.24 q 277.03 -101.73 257.7 -122.75 q 300.43 -42.72 296.36 -80.7 l 300.43 -42.72 l 305.85 -2.03 l 21.02 758.19 l 237.36 758.19 l 364.85 364.85 q 402.83 215.66 387.91 290.26 l 402.83 215.66 q 413 164.79 407.58 190.57 l 413 164.79 q 425.21 216.34 419.11 190.57 l 425.21 216.34 q 467.94 364.85 443.52 290.93 l 467.94 364.85 l 600.86 758.19 l 814.48 758.19 l 492.35 -89.52 q 433.35 -195.31 469.29 -150.55 q 343.83 -264.49 397.41 -240.07 q 214.3 -288.9 290.26 -288.9 l 214.3 -288.9 q 138.35 -283.14 173.61 -288.9 q 81.38 -268.55 103.08 -277.37 "},"z":{"ha":795,"x_min":81,"x_max":714,"o":"m 714.11 0 l 81.38 0 l 81.38 123.43 l 455.05 588.65 l 455.05 594.08 l 92.91 594.08 l 92.91 758.19 l 701.23 758.19 l 701.23 623.24 l 348.58 169.54 l 348.58 164.12 l 714.11 164.12 l 714.11 0 "}," ":{"ha":329,"x_min":0,"x_max":0,"o":""},".":{"ha":464,"x_min":115,"x_max":349,"o":"m 231.93 -12.89 l 231.93 -12.89 q 148.52 20.68 182.43 -12.89 q 114.61 103.76 114.61 54.25 l 114.61 103.76 q 148.52 186.84 114.61 153.27 q 231.93 220.4 182.43 220.4 l 231.93 220.4 q 315.35 186.84 281.44 220.4 q 349.26 103.76 349.26 153.27 l 349.26 103.76 q 315.35 20.68 349.26 54.25 q 231.93 -12.89 281.44 -12.89 "},",":{"ha":464,"x_min":81,"x_max":344,"o":"m 219.05 -267.88 l 80.7 -267.88 l 140.38 152.59 l 343.83 152.59 l 219.05 -267.88 "},":":{"ha":464,"x_min":115,"x_max":349,"o":"m 231.93 -12.89 l 231.93 -12.89 q 148.52 20.68 182.43 -12.89 q 114.61 103.76 114.61 54.25 l 114.61 103.76 q 148.52 186.84 114.61 153.27 q 231.93 220.4 182.43 220.4 l 231.93 220.4 q 315.35 186.84 281.44 220.4 q 349.26 103.76 349.26 153.27 l 349.26 103.76 q 315.35 20.68 349.26 54.25 q 231.93 -12.89 281.44 -12.89 m 231.93 490.32 l 231.93 490.32 q 148.52 523.89 182.43 490.32 q 114.61 606.96 114.61 557.45 l 114.61 606.96 q 148.52 690.04 114.61 656.47 q 231.93 723.61 182.43 723.61 l 231.93 723.61 q 315.35 690.04 281.44 723.61 q 349.26 606.96 349.26 656.47 l 349.26 606.96 q 315.35 523.89 349.26 557.45 q 231.93 490.32 281.44 490.32 "},";":{"ha":476,"x_min":81,"x_max":361,"o":"m 219.05 -267.88 l 80.7 -267.88 l 140.38 152.59 l 343.83 152.59 l 219.05 -267.88 m 244.14 490.32 l 244.14 490.32 q 160.73 523.89 194.63 490.32 q 126.82 606.96 126.82 557.45 l 126.82 606.96 q 160.73 690.04 126.82 656.47 q 244.14 723.61 194.63 723.61 l 244.14 723.61 q 327.56 690.04 293.65 723.61 q 361.46 606.96 361.46 656.47 l 361.46 606.96 q 327.56 523.89 361.46 557.45 q 244.14 490.32 293.65 490.32 "},"!":{"ha":469,"x_min":115,"x_max":355,"o":"m 328.91 320.1 l 139.7 320.1 l 124.78 1010.47 l 343.83 1010.47 l 328.91 320.1 m 234.65 -12.89 l 234.65 -12.89 q 148.18 18.99 181.75 -12.89 q 114.61 101.73 114.61 50.86 l 114.61 101.73 q 148.18 185.14 114.61 153.27 q 234.65 217.01 181.75 217.01 l 234.65 217.01 q 321.79 185.14 288.22 217.01 q 355.36 101.73 355.36 153.27 l 355.36 101.73 q 321.79 18.99 355.36 50.86 q 234.65 -12.89 288.22 -12.89 "},"?":{"ha":777,"x_min":54,"x_max":711,"o":"m 446.23 310.6 l 264.49 310.6 l 264.49 326.88 q 279.74 462.51 264.49 413 q 323.83 541.52 295 512.02 q 394.69 596.11 352.65 571.02 l 394.69 596.11 q 471.33 660.54 440.13 625.95 q 502.52 744.63 502.52 695.12 l 502.52 744.63 q 485.91 805.66 502.52 779.89 q 441.49 845.68 469.29 831.43 q 379.1 859.92 413.68 859.92 l 379.1 859.92 q 317.38 845.68 346.54 859.92 q 269.57 803.63 288.22 831.43 q 248.89 734.46 250.92 775.82 l 248.89 734.46 l 53.58 734.46 q 99.35 896.2 54.93 832.11 q 217.69 992.16 143.77 960.29 q 379.77 1024.03 291.61 1024.03 l 379.77 1024.03 q 552.03 991.48 477.43 1024.03 q 669.01 897.89 626.63 958.93 q 711.4 751.41 711.4 836.86 l 711.4 751.41 q 670.71 606.96 711.4 664.61 q 560.17 507.95 630.02 549.32 l 560.17 507.95 q 496.08 461.49 521.51 484.89 q 458.44 406.9 470.65 438.1 q 446.23 326.88 446.23 375.71 l 446.23 326.88 l 446.23 310.6 m 356.04 -12.89 l 356.04 -12.89 q 269.23 18.99 303.14 -12.89 q 235.32 101.73 235.32 50.86 l 235.32 101.73 q 269.23 185.14 235.32 153.27 q 356.04 217.01 303.14 217.01 l 356.04 217.01 q 442.84 185.14 409.61 217.01 q 476.07 101.73 476.07 153.27 l 476.07 101.73 q 442.84 18.99 476.07 50.86 q 356.04 -12.89 409.61 -12.89 "},"_":{"ha":661,"x_min":0,"x_max":661,"o":"m 0 0 l 661.21 0 l 661.21 -156.66 l 0 -156.66 l 0 0 "},"-":{"ha":650,"x_min":95,"x_max":555,"o":"m 94.94 497.1 l 554.74 497.1 l 554.74 334.34 l 94.94 334.34 l 94.94 497.1 "},"–":{"ha":694,"x_min":0,"x_max":694,"o":"m 0 497.1 l 694.44 497.1 l 694.44 334.34 l 0 334.34 l 0 497.1 "},"—":{"ha":1389,"x_min":0,"x_max":1389,"o":"m 0 497.1 l 1388.89 497.1 l 1388.89 334.34 l 0 334.34 l 0 497.1 "},"'":{"ha":471,"x_min":137,"x_max":333,"o":"m 312.64 590.01 l 158.01 590.01 l 136.99 1010.47 l 332.98 1010.47 l 312.64 590.01 "},"\"":{"ha":766,"x_min":137,"x_max":629,"o":"m 312.64 590.01 l 158.01 590.01 l 136.99 1010.47 l 332.98 1010.47 l 312.64 590.01 m 608.32 590.01 l 453.69 590.01 l 432.67 1010.47 l 628.66 1010.47 l 608.32 590.01 "},"(":{"ha":524,"x_min":115,"x_max":479,"o":"m 114.61 411.65 l 114.61 411.65 q 137.33 645.62 114.61 524.22 q 199.38 878.91 160.05 767.01 q 289.58 1072.18 238.72 990.8 l 289.58 1072.18 l 478.79 1072.18 q 394.69 852.8 429.96 967.07 q 340.78 625.95 359.43 738.53 q 322.13 411.65 322.13 513.37 l 322.13 411.65 q 338.07 232.95 322.13 322.81 q 388.59 40.69 354 143.09 q 478.79 -189.21 423.18 -61.71 l 478.79 -189.21 l 289.58 -189.21 q 159.03 106.81 203.45 -46.12 q 114.61 411.65 114.61 259.74 "},")":{"ha":524,"x_min":45,"x_max":409,"o":"m 233.97 -189.21 l 45.44 -189.21 q 135.97 42.39 101.73 -60.36 q 185.82 234.65 170.22 145.13 q 201.42 411.65 201.42 324.16 l 201.42 411.65 q 182.77 625.95 201.42 513.37 q 129.19 852.8 164.12 738.53 q 45.44 1072.18 94.27 967.07 l 45.44 1072.18 l 233.97 1072.18 q 324.84 878.91 285.51 990.8 q 386.56 645.28 364.18 767.01 q 408.94 411.65 408.94 523.55 l 408.94 411.65 q 364.18 105.46 408.94 258.38 q 233.97 -189.21 319.42 -47.47 l 233.97 -189.21 "},"[":{"ha":524,"x_min":123,"x_max":454,"o":"m 454.37 -189.21 l 123.43 -189.21 l 123.43 1072.18 l 454.37 1072.18 l 454.37 917.56 l 319.42 917.56 l 319.42 -34.59 l 454.37 -34.59 l 454.37 -189.21 "},"]":{"ha":524,"x_min":69,"x_max":401,"o":"m 400.8 -189.21 l 69.17 -189.21 l 69.17 -34.59 l 204.13 -34.59 l 204.13 917.56 l 69.17 917.56 l 69.17 1072.18 l 400.8 1072.18 l 400.8 -189.21 "},"{":{"ha":651,"x_min":95,"x_max":583,"o":"m 582.55 -35.94 l 582.55 -189.21 q 445.9 -179.38 507.95 -189.21 q 339.08 -141.06 383.84 -169.54 q 270.25 -57.98 294.33 -112.58 q 246.18 86.81 246.18 -3.39 l 246.18 86.81 l 246.18 204.81 q 212.94 315.35 246.18 280.76 l 212.94 315.35 q 118 349.26 184.46 345.19 l 118 349.26 l 94.94 349.26 l 94.94 533.72 l 118 533.72 q 212.94 567.63 184.46 537.79 l 212.94 567.63 q 246.18 677.49 246.18 601.54 l 246.18 677.49 l 246.18 796.17 q 270.25 940.62 246.18 885.69 q 339.08 1023.7 294.33 995.55 q 445.9 1062.01 383.84 1051.84 q 582.55 1072.18 507.95 1072.18 l 582.55 1072.18 l 582.55 918.24 q 464.55 883.99 494.38 918.24 q 434.71 776.5 434.71 849.75 l 434.71 776.5 l 434.71 628.66 q 421.82 555.76 434.71 591.36 q 373.67 492.35 408.94 520.16 l 373.67 492.35 q 275.34 448.95 339.08 465.22 l 275.34 448.95 l 275.34 434.03 q 373.67 390.63 339.08 417.75 l 373.67 390.63 q 421.82 326.54 408.94 362.14 q 434.71 253.63 434.71 290.93 l 434.71 253.63 l 434.71 106.47 q 464.55 -1.02 434.71 33.91 q 582.55 -35.94 494.38 -35.94 l 582.55 -35.94 "},"}":{"ha":651,"x_min":69,"x_max":556,"o":"m 69.17 -189.21 l 69.17 -189.21 l 69.17 -35.94 q 187.17 -1.02 157.34 -35.94 q 217.01 106.47 217.01 33.91 l 217.01 106.47 l 217.01 253.63 q 229.56 326.54 217.01 290.93 q 278.05 390.63 242.11 362.14 l 278.05 390.63 q 375.71 434.03 311.96 417.75 l 375.71 434.03 l 375.71 448.95 q 278.05 492.35 311.96 465.22 l 278.05 492.35 q 229.56 555.76 242.11 520.16 q 217.01 628.66 217.01 591.36 l 217.01 628.66 l 217.01 776.5 q 187.17 883.99 217.01 849.75 q 69.17 918.24 157.34 918.24 l 69.17 918.24 l 69.17 1072.18 q 205.49 1062.01 143.77 1072.18 q 311.96 1023.7 267.2 1051.84 q 380.79 940.62 356.72 995.55 q 404.87 796.17 404.87 885.69 l 404.87 796.17 l 404.87 677.49 q 438.77 567.63 404.87 601.54 l 438.77 567.63 q 552.71 533.04 471.33 533.72 l 552.71 533.04 l 556.1 533.04 l 556.1 349.93 q 438.1 315.01 471.33 349.26 q 404.87 204.81 404.87 280.76 l 404.87 204.81 l 404.87 86.81 q 380.79 -57.98 404.87 -3.39 q 311.96 -141.06 356.72 -112.58 q 205.49 -179.38 267.2 -169.54 q 69.17 -189.21 143.77 -189.21 "},"&":{"ha":933,"x_min":55,"x_max":927,"o":"m 392.66 -14.92 l 392.66 -14.92 q 212.27 23.06 288.22 -14.92 q 95.62 124.78 136.31 61.04 q 54.93 266.52 54.93 188.53 l 54.93 266.52 q 79.01 373.67 54.93 327.56 q 146.48 459.12 103.08 419.79 l 146.48 459.12 q 241.43 533.72 187.85 496.42 l 241.43 533.72 q 233.97 542.53 237.36 537.79 l 233.97 542.53 q 168.86 646.63 194.63 591.36 q 143.09 767.01 143.09 701.9 l 143.09 767.01 q 177.34 897.56 143.09 839.57 q 273.3 989.11 211.59 955.54 q 417.07 1022.68 335.02 1022.68 l 417.07 1022.68 q 556.1 990.46 497.78 1022.68 q 646.29 904.34 614.42 958.25 q 678.17 784.64 678.17 850.42 l 678.17 784.64 q 661.55 696.48 678.17 737.85 q 615.1 619.85 644.94 655.11 q 543.89 554.06 585.26 584.58 l 543.89 554.06 l 483.53 510.66 l 653.75 313.99 q 671.39 351.29 663.25 331.62 l 671.39 351.29 q 696.48 489.64 696.48 413.68 l 696.48 489.64 l 866.7 489.64 q 846.35 322.47 866.7 396.05 q 790.74 195.31 826.01 248.89 l 790.74 195.31 q 775.82 174.29 783.28 184.46 l 775.82 174.29 l 927.06 0 l 712.75 0 l 651.72 68.5 q 531.68 6.78 598.82 27.13 l 531.68 6.78 q 392.66 -14.92 460.48 -14.92 m 541.18 191.92 l 345.19 410.97 l 337.73 405.54 q 275 344.85 296.36 375.03 q 253.63 274.66 253.63 314.67 l 253.63 274.66 q 271.95 208.2 253.63 236.68 q 322.81 164.46 290.26 179.71 q 398.76 149.2 355.36 149.2 l 398.76 149.2 q 507.27 173.61 454.37 149.2 l 507.27 173.61 q 541.18 191.92 524.22 181.75 l 541.18 191.92 m 383.84 627.98 l 383.84 627.98 l 438.1 663.93 q 476.07 694.78 459.12 677.49 q 502.86 732.08 493.03 712.08 q 512.7 775.15 512.7 752.09 l 512.7 775.15 q 488.28 834.15 512.7 809.73 q 418.43 858.56 463.87 858.56 l 418.43 858.56 q 366.21 847.03 388.59 858.56 q 331.62 814.48 343.83 835.5 q 319.42 764.97 319.42 793.46 l 319.42 764.97 q 336.03 698.85 319.42 731.74 q 381.81 630.02 352.65 665.96 l 381.81 630.02 q 383.84 627.98 382.49 628.66 "},"/":{"ha":539,"x_min":19,"x_max":521,"o":"m 344.51 1057.94 l 520.83 1057.94 l 195.31 -151.91 l 18.99 -151.91 l 344.51 1057.94 "},"\\":{"ha":539,"x_min":19,"x_max":521,"o":"m 520.83 -151.91 l 344.51 -151.91 l 18.99 1057.94 l 195.31 1057.94 l 520.83 -151.91 "},"+":{"ha":943,"x_min":124,"x_max":819,"o":"m 557.45 55.61 l 385.2 55.61 l 385.2 322.13 l 124.1 322.13 l 124.1 484.89 l 385.2 484.89 l 385.2 751.41 l 557.45 751.41 l 557.45 484.89 l 819.23 484.89 l 819.23 322.13 l 557.45 322.13 l 557.45 55.61 "},"*":{"ha":777,"x_min":109,"x_max":667,"o":"m 453.02 442.17 l 322.81 442.17 l 335.69 634.77 l 174.29 526.94 l 108.51 640.87 l 282.8 725.64 l 108.51 810.41 l 174.29 925.7 l 335.69 817.87 l 322.81 1010.47 l 453.02 1010.47 l 440.81 817.87 l 602.21 925.7 l 666.64 810.41 l 493.71 725.64 l 666.64 640.87 l 602.21 526.94 l 440.81 634.77 l 453.02 442.17 "},"=":{"ha":943,"x_min":134,"x_max":810,"o":"m 809.73 480.82 l 133.6 480.82 l 133.6 651.04 l 809.73 651.04 l 809.73 480.82 m 809.73 155.98 l 133.6 155.98 l 133.6 326.88 l 809.73 326.88 l 809.73 155.98 "},"<":{"ha":943,"x_min":113,"x_max":804,"o":"m 803.63 12.89 l 112.58 319.42 l 112.58 486.92 l 803.63 794.81 l 803.63 598.82 l 333.66 407.58 l 333.66 398.08 l 803.63 207.52 l 803.63 12.89 "},">":{"ha":943,"x_min":139,"x_max":830,"o":"m 830.08 486.92 l 830.08 319.42 l 139.02 12.89 l 139.02 207.52 l 609.67 398.08 l 609.67 407.58 l 139.02 598.82 l 139.02 794.81 l 830.08 486.92 "},"@":{"ha":1411,"x_min":64,"x_max":1348,"o":"m 720.21 -290.26 l 720.21 -290.26 q 442.5 -247.53 564.24 -290.26 q 236 -122.75 320.77 -204.81 q 107.49 78.33 151.23 -40.69 q 63.75 349.93 63.75 197.35 l 63.75 349.93 q 106.13 616.12 63.75 496.42 q 231.26 822.62 148.52 735.81 q 435.72 956.22 313.99 909.42 q 714.79 1003.01 557.45 1003.01 l 714.79 1003.01 q 978.94 959.27 861.95 1003.01 q 1178.32 836.86 1095.92 915.53 q 1304.12 652.06 1260.72 758.19 q 1347.52 421.14 1347.52 545.93 l 1347.52 421.14 q 1331.92 263.13 1347.52 336.37 q 1282.76 134.96 1316.32 189.89 q 1195.95 49.17 1249.19 80.02 q 1066.76 18.31 1142.71 18.31 l 1066.76 18.31 q 983.34 30.18 1022.68 18.31 q 917.56 67.48 944.01 42.05 q 884.33 131.56 891.11 92.91 l 884.33 131.56 l 878.91 131.56 q 807.36 49.17 860.6 80.7 q 674.1 17.63 754.12 17.63 l 674.1 17.63 q 516.09 60.36 581.19 17.63 q 416.73 179.38 450.98 103.08 q 382.49 356.72 382.49 255.67 l 382.49 356.72 q 419.79 532.7 382.49 456.41 q 523.89 652.06 457.09 609 q 678.17 695.12 590.68 695.12 l 678.17 695.12 q 792.44 671.39 744.63 695.12 q 859.92 610.35 840.25 647.65 l 859.92 610.35 l 867.38 610.35 l 867.38 679.52 l 1007.08 679.52 l 1007.08 221.76 q 1022 170.22 1007.08 189.21 q 1068.12 151.23 1036.92 151.23 l 1068.12 151.23 q 1135.93 178.7 1110.84 151.23 q 1171.88 262.79 1161.02 206.16 q 1182.73 407.58 1182.73 319.42 l 1182.73 407.58 q 1154.24 587.63 1182.73 506.59 q 1068.79 727 1125.76 668.67 q 926.38 816.85 1011.83 785.32 q 727 848.39 840.93 848.39 l 727 848.39 q 515.07 814.82 606.96 848.39 q 360.79 717.5 423.18 781.25 q 266.86 561.86 298.39 653.75 q 235.32 354 235.32 469.97 l 235.32 354 q 267.54 144.79 235.32 236 q 363.16 -8.48 299.75 53.58 q 519.82 -102.4 426.57 -70.53 q 735.81 -134.28 613.06 -134.28 l 735.81 -134.28 q 842.29 -126.14 791.42 -134.28 q 935.19 -105.79 893.15 -118 q 1005.05 -82.06 977.24 -93.59 l 1005.05 -82.06 l 1058.62 -223.12 q 972.49 -254.99 1025.39 -239.39 q 855.17 -280.42 919.6 -270.59 q 720.21 -290.26 790.74 -290.26 m 693.09 162.08 l 693.09 162.08 q 786 184.46 749.38 162.08 q 840.59 250.92 822.62 206.84 q 858.56 359.43 858.56 295 l 858.56 359.43 q 839.91 464.55 858.56 424.53 q 784.64 522.87 821.26 504.56 q 695.12 541.18 748.02 541.18 l 695.12 541.18 q 607.3 518.12 643.58 541.18 q 552.03 454.37 571.02 495.06 q 533.04 360.11 533.04 413.68 l 533.04 360.11 q 550.33 258.38 533.04 303.14 q 603.23 187.85 567.63 213.62 q 693.09 162.08 638.83 162.08 "},"#":{"ha":901,"x_min":15,"x_max":886,"o":"m 621.88 0 l 467.94 0 l 509.3 252.96 l 308.57 252.96 l 267.2 0 l 113.25 0 l 154.62 252.96 l 14.92 252.96 l 41.37 406.22 l 179.71 406.22 l 212.27 603.57 l 73.24 603.57 l 99.01 757.51 l 237.36 757.51 l 278.73 1010.47 l 432.67 1010.47 l 391.3 757.51 l 592.72 757.51 l 634.09 1010.47 l 788.03 1010.47 l 746.66 757.51 l 885.69 757.51 l 859.92 603.57 l 720.89 603.57 l 688.34 406.22 l 828.04 406.22 l 801.6 252.96 l 663.25 252.96 l 621.88 0 m 366.21 603.57 l 333.66 406.22 l 534.4 406.22 l 566.95 603.57 l 366.21 603.57 "},"%":{"ha":1411,"x_min":126,"x_max":1284,"o":"m 346.54 528.29 l 346.54 528.29 q 225.49 558.81 274.66 528.29 q 151.23 640.19 176.32 589.33 q 126.14 750.73 126.14 691.05 l 126.14 750.73 l 126.14 803.63 q 151.91 915.19 126.14 864.66 q 226.85 996.23 177.68 965.71 q 346.54 1026.75 276.01 1026.75 l 346.54 1026.75 q 467.6 996.23 418.43 1026.75 q 541.86 915.19 516.76 965.71 q 566.95 803.63 566.95 864.66 l 566.95 803.63 l 566.95 750.73 q 541.52 639.17 566.95 689.7 q 466.92 558.47 516.09 588.65 q 346.54 528.29 417.75 528.29 m 346.54 652.4 l 346.54 652.4 q 408.6 682.92 391.98 652.4 q 425.21 750.73 425.21 713.43 l 425.21 750.73 l 425.21 803.63 q 409.27 871.79 425.21 840.25 q 346.54 903.32 393.34 903.32 l 346.54 903.32 q 284.49 871.11 301.78 903.32 q 267.2 803.63 267.2 838.89 l 267.2 803.63 l 267.2 750.73 q 284.49 682.92 267.2 713.43 q 346.54 652.4 301.78 652.4 m 1064.05 -17.63 l 1064.05 -17.63 q 943.67 12.89 992.84 -17.63 q 869.07 94.27 894.5 43.4 q 843.64 204.81 843.64 145.13 l 843.64 204.81 l 843.64 257.7 q 869.41 369.26 843.64 318.74 q 944.69 450.3 895.18 419.79 q 1064.05 480.82 994.19 480.82 l 1064.05 480.82 q 1185.44 450.3 1136.61 480.82 q 1259.36 369.26 1234.27 419.79 q 1284.45 257.7 1284.45 318.74 l 1284.45 257.7 l 1284.45 204.81 q 1259.02 93.59 1284.45 144.45 q 1184.42 12.55 1233.59 42.72 q 1064.05 -17.63 1135.25 -17.63 m 1064.05 106.47 l 1064.05 106.47 q 1126.1 137.33 1109.48 106.47 q 1142.71 204.81 1142.71 168.19 l 1142.71 204.81 l 1142.71 257.7 q 1126.78 325.86 1142.71 294.33 q 1064.05 357.39 1110.84 357.39 l 1064.05 357.39 q 1002.33 325.52 1019.29 357.39 q 985.38 257.7 985.38 293.65 l 985.38 257.7 l 985.38 204.81 q 1002.33 137.33 985.38 168.19 q 1064.05 106.47 1019.29 106.47 m 424.53 0 l 284.15 0 l 978.6 1010.47 l 1118.98 1010.47 l 424.53 0 "},"^":{"ha":676,"x_min":47,"x_max":629,"o":"m 203.45 552.03 l 46.79 552.03 l 254.99 986.74 l 421.14 986.74 l 629.34 552.03 l 472.68 552.03 l 342.48 848.39 l 333.66 848.39 l 203.45 552.03 "},"$":{"ha":909,"x_min":58,"x_max":852,"o":"m 501.84 -136.31 l 420.46 -136.31 l 420.46 -13.56 q 250.92 22.38 324.84 -8.14 l 250.92 22.38 q 110.54 132.92 160.73 59.68 q 57.64 313.31 60.36 206.16 l 57.64 313.31 l 259.06 313.31 q 289.58 228.2 263.13 262.45 q 360.11 177 316.03 193.96 l 360.11 177 q 420.46 162.08 387.91 166.15 l 420.46 162.08 l 420.46 429.28 l 358.07 444.88 q 157.34 542.87 229.9 476.07 q 84.77 719.54 84.77 609.67 l 84.77 719.54 q 133.94 879.58 84.77 811.09 q 269.23 986.06 183.11 948.08 l 269.23 986.06 q 420.46 1022.68 337.05 1016.57 l 420.46 1022.68 l 420.46 1146.78 l 501.84 1146.78 l 501.84 1022.68 q 659.86 986.06 590.68 1017.25 l 659.86 986.06 q 790.07 879.25 743.27 947.4 q 838.22 722.25 836.86 811.09 l 838.22 722.25 l 638.16 722.25 q 586.62 816.51 632.73 783.28 l 586.62 816.51 q 501.84 847.03 552.03 840.93 l 501.84 847.03 l 501.84 594.75 l 549.99 583.22 q 668.67 544.57 613.74 568.98 q 764.97 484.55 723.61 520.16 q 829.06 400.12 806.34 448.95 q 851.78 287.54 851.78 351.29 l 851.78 287.54 q 805.66 127.83 851.78 195.99 q 672.06 22.38 759.55 59.68 l 672.06 22.38 q 501.84 -13.56 599.5 -8.82 l 501.84 -13.56 l 501.84 -136.31 m 501.84 408.94 l 501.84 162.76 q 556.78 176.32 531.68 166.15 l 556.78 176.32 q 620.52 221.08 597.47 191.92 q 643.58 288.9 643.58 250.24 l 643.58 288.9 q 622.9 346.88 643.58 323.49 q 563.56 387.23 602.21 370.28 l 563.56 387.23 q 501.84 408.94 537.11 398.76 l 501.84 408.94 m 420.46 616.46 l 420.46 616.46 l 420.46 847.03 q 372.99 834.83 394.02 843.64 l 372.99 834.83 q 316.37 793.46 335.69 819.91 q 297.04 733.1 297.04 767.01 l 297.04 733.1 q 319.42 671.05 297.04 695.8 q 379.1 631.37 341.8 646.29 l 379.1 631.37 q 420.46 616.46 398.76 622.56 "},"|":{"ha":516,"x_min":161,"x_max":354,"o":"m 161.4 1335.99 l 354 1335.99 l 354 -325.52 l 161.4 -325.52 l 161.4 1335.99 "},"~":{"ha":943,"x_min":104,"x_max":839,"o":"m 264.49 274.66 l 106.47 274.66 q 129.87 431.32 103.76 367.57 q 204.81 527.28 155.98 495.06 q 318.74 559.49 253.63 559.49 l 318.74 559.49 q 407.58 540.5 365.53 559.49 q 503.88 473.36 449.63 521.51 l 503.88 473.36 q 552.71 435.05 533.04 448.27 q 598.14 421.82 572.37 421.82 l 598.14 421.82 q 656.47 449.63 634.09 421.82 q 678.17 536.43 678.85 477.43 l 678.17 536.43 l 836.18 536.43 q 812.11 379.77 838.89 443.52 q 736.49 283.81 785.32 316.03 q 623.91 251.6 687.66 251.6 l 623.91 251.6 q 531.34 272.28 574.41 251.6 q 437.42 337.05 488.28 292.97 l 437.42 337.05 q 387.57 377.06 405.54 364.85 q 344.51 389.27 369.6 389.27 l 344.51 389.27 q 286.19 362.82 309.24 389.27 q 264.49 274.66 263.13 336.37 l 264.49 274.66 "},"`":{"ha":507,"x_min":109,"x_max":392,"o":"m 391.98 854.49 l 248.89 854.49 l 109.19 1065.4 l 297.72 1065.4 l 391.98 854.49 "}}}
